<svg xmlns="http://www.w3.org/2000/svg" viewBox="0 0 455 156">
  <title>fond_sombre_st_logo</title>
  <g id="Calque_2" data-name="Calque 2">
    <g id="Calque_1-2" data-name="Calque 1">
      <g>
        <path d="M94.69,38.8H62.47V73.63l32.22-.13a21.57,21.57,0,0,0,12.15-3.59q7.68-5.2,7.69-13.64a16,16,0,0,0-4-10.53Q104.61,38.8,94.69,38.8Z" style="fill: none"/>
        <path d="M113.91,70.28q-7.44,8.18-19.22,8.18H62.47v39.66h-5V76l.13-39.54V34h2.47l34.58-.13a25.38,25.38,0,0,1,16.12,5.45q8.67,6.7,8.67,17A20.41,20.41,0,0,1,113.91,70.28Zm26-9.17v57h-5V58.63h5ZM137.5,54a8.5,8.5,0,1,1,8.5-8.5A8.51,8.51,0,0,1,137.5,54Zm26.6,50.24q6.57,8.92,17,8.93a22.05,22.05,0,0,0,18.22-9.42l4,2.72q-7.94,11.53-22.19,11.65a24.72,24.72,0,0,1-17.6-7.19q-9.28-8.93-9.29-22.55a30.7,30.7,0,0,1,6.94-20q7.92-9.78,20-9.79,14.74.12,22.31,10.91l-4.21,2.72q-5.7-8.55-18.1-8.67A20.22,20.22,0,0,0,167.2,69q-8.05,7.44-8.06,19.34A26.64,26.64,0,0,0,164.1,104.24Zm79.32-40.65H226.2V103q1,10.17,14.75,10.17h2.47v5H241a31,31,0,0,1-4-.25q-15.61-1.61-15.74-16V63.59h-10v-5h10V43.14h5V58.63h17.22Zm58-2.36-.13,34.83a20.56,20.56,0,0,1-5.2,13.76q-7.19,8.3-18.72,8.3a24.61,24.61,0,0,1-15.61-5.33q-8.43-6.69-8.43-16.73V61.11l.12-2.36h5.08l-.12,2.48-.12,34.83A15.77,15.77,0,0,0,262,106.22a19.09,19.09,0,0,0,15.37,7,19.73,19.73,0,0,0,11.41-3.48q7.56-5.07,7.56-13.63V61.11l.12-2.36h5.08Zm90.85,57-.13-2.48-.12-34a20.15,20.15,0,0,0-3.1-10.91q-4.83-7.31-12.76-7.31a14.31,14.31,0,0,0-9.3,3.47q-6.57,5.44-6.57,14.75v33.83l.12,2.61h-4.83l-.12-2.48-.13-31.48V81.81a20.15,20.15,0,0,0-3.1-10.91q-4.83-7.31-12.76-7.31a14.31,14.31,0,0,0-9.3,3.47q-6.57,5.44-6.57,14.75v36.31h-4.95V58.63h4.95v8.18q6.19-8.06,15.87-8.18a17.79,17.79,0,0,1,5.08.74q8.93,2.49,13.26,11.41a26.71,26.71,0,0,1,2.36-3.85q6.31-8.3,16-8.3a19.42,19.42,0,0,1,12.89,5Q397,70.54,397,81.81v33.83l.12,2.61Z" style="fill: none"/>
        <polygon points="3 3 42 3 42 0 0 0 0 40.84 3 40.84 3 3" style="fill: #fff"/>
        <polygon points="452 3 452 40.81 455 40.81 455 0 414 0 414 3 452 3" style="fill: #fff"/>
        <polygon points="3 153 3 114.8 0 114.8 0 156 42 156 42 153 3 153" style="fill: #fff"/>
        <polygon points="452 153 414 153 414 156 455 156 455 114.76 452 114.76 452 153" style="fill: #fff"/>
        <g>
          <path d="M110.81,39.29a25.38,25.38,0,0,0-16.12-5.45L60.11,34H57.64v2.47L57.51,76v42.14h5V78.46H94.69q11.78,0,19.22-8.18a20.41,20.41,0,0,0,5.57-14Q119.48,46,110.81,39.29Zm-4,30.62A21.57,21.57,0,0,1,94.69,73.5l-32.22.13V38.8H94.69q9.91,0,15.87,6.94a16,16,0,0,1,4,10.53Q114.53,64.72,106.84,69.91ZM135,58.63h5v59.49h-5V58.63Zm24.16,29.75a26.64,26.64,0,0,0,5,15.86q6.57,8.92,17,8.93a22.05,22.05,0,0,0,18.22-9.42l4,2.72q-7.94,11.53-22.19,11.65a24.72,24.72,0,0,1-17.6-7.19q-9.28-8.93-9.29-22.55a30.7,30.7,0,0,1,6.94-20q7.92-9.78,20-9.79,14.74.12,22.31,10.91l-4.21,2.72q-5.7-8.55-18.1-8.67A20.22,20.22,0,0,0,167.2,69Q159.15,76.48,159.14,88.38ZM241,58.63h2.47v5H226.2V103q1,10.17,14.75,10.17h2.47v5H241a31,31,0,0,1-4-.25q-15.61-1.61-15.74-16V63.59h-10v-5h10V43.14h5V58.63Zm55.52.12h5.08l-.12,2.48-.13,34.83a20.56,20.56,0,0,1-5.2,13.76q-7.19,8.3-18.72,8.3a24.61,24.61,0,0,1-15.61-5.33q-8.43-6.69-8.43-16.73V61.11l.12-2.36h5.08l-.12,2.48-.12,34.83A15.77,15.77,0,0,0,262,106.22a19.09,19.09,0,0,0,15.37,7,19.73,19.73,0,0,0,11.41-3.48q7.56-5.07,7.56-13.63V61.11ZM397,115.64l.12,2.61h-4.83l-.13-2.48-.12-34a20.15,20.15,0,0,0-3.1-10.91q-4.83-7.31-12.76-7.31a14.31,14.31,0,0,0-9.3,3.47q-6.57,5.44-6.57,14.75v33.83l.12,2.61h-4.83l-.12-2.48-.13-31.48V81.81a20.15,20.15,0,0,0-3.1-10.91q-4.83-7.31-12.76-7.31a14.31,14.31,0,0,0-9.3,3.47q-6.57,5.44-6.57,14.75v36.31h-4.95V58.63h4.95v8.18q6.19-8.06,15.87-8.18a17.79,17.79,0,0,1,5.08.74q8.93,2.49,13.26,11.41a26.71,26.71,0,0,1,2.36-3.85q6.31-8.3,16-8.3a19.42,19.42,0,0,1,12.89,5Q397,70.54,397,81.81Z" style="fill: #fff"/>
          <circle cx="137.5" cy="45.5" r="8.5" style="fill: #c1272d"/>
        </g>
      </g>
    </g>
  </g>
</svg>
