<svg xmlns="http://www.w3.org/2000/svg" viewBox="0 0 752 319.12">
  <title>logo_blanc@1</title>
  <g id="Calque_2" data-name="Calque 2">
    <g id="Calque_1-2" data-name="Calque 1">
      <g>
        <polygon points="83.77 319.12 0 319.12 0 235.35 7.82 235.35 7.82 311.3 83.77 311.3 83.77 319.12" style="fill: #fff"/>
        <polygon points="10.49 83.76 2.67 83.76 2.67 0 86.43 0 86.43 7.82 10.49 7.82 10.49 83.76" style="fill: #fff"/>
        <polygon points="752 83.76 744.18 83.76 744.18 7.82 668.24 7.82 668.24 0 752 0 752 83.76" style="fill: #fff"/>
        <polygon points="752 317.43 668.24 317.43 668.24 309.61 744.18 309.61 744.18 233.66 752 233.66 752 317.43" style="fill: #fff"/>
        <g>
          <path d="M67.84,158.68l.23-73.37v-4.6h4.6l64.17-.23a47,47,0,0,1,29.9,10.12q16.09,12.42,16.1,31.51,0,14.49-10.35,26-13.8,15.18-35.65,15.18H77v73.6h-9.2v-78.2Zm69-4.6a40.06,40.06,0,0,0,22.54-6.67q14.25-9.66,14.26-25.3a29.59,29.59,0,0,0-7.36-19.55q-11-12.87-29.44-12.88H77v64.63Z" style="fill: #fff"/>
          <path d="M211.59,107.85v-9.2H221v9.2h-9.43Zm0,18.63h9.2v110.4h-9.2V126.48Z" style="fill: #fff"/>
          <path d="M338.32,215.26q-14.71,21.39-41.17,21.62-18.63,0-32.66-13.34Q247.24,207,247.24,181.68q0-21.17,12.88-37,14.72-18.17,37-18.17,27.36.22,41.4,20.24l-7.82,5.06q-10.59-15.87-33.58-16.1a37.44,37.44,0,0,0-25.76,10.12q-15,13.8-14.95,35.88a49.41,49.41,0,0,0,9.2,29.44q12.18,16.56,31.51,16.56,20.93-.23,33.81-17.48Z" style="fill: #fff"/>
          <path d="M380.87,206.75v2.07q1.85,18.85,27.37,18.86h4.6v9.2h-4.6a58.65,58.65,0,0,1-7.36-.46q-29-3-29.21-29.67V135.68H353v-9.2h18.63V97.73h9.2v28.75h32v9.2h-32Z" style="fill: #fff"/>
          <path d="M431.47,126.7h9.43l-.23,4.6-.23,64.63a29.23,29.23,0,0,0,6.9,18.86q10.8,12.89,28.52,12.88A36.69,36.69,0,0,0,497,221.23q14-9.43,14-25.3V131.07l.23-4.37h9.43l-.23,4.6-.23,64.63a38.16,38.16,0,0,1-9.66,25.53q-13.35,15.42-34.73,15.41a45.71,45.71,0,0,1-29-9.89q-15.64-12.42-15.64-31V131.07Z" style="fill: #fff"/>
          <path d="M629.5,141.89q11.73-15.4,29.67-15.41,13.11,0,23.92,9.2,14.71,12.88,14.72,33.81v62.79l.23,4.83h-9l-.23-4.6-.23-63a37.46,37.46,0,0,0-5.75-20.24q-9-13.56-23.69-13.57a26.52,26.52,0,0,0-17.25,6.44q-12.2,10.13-12.19,27.37v62.79l.23,4.83h-9l-.23-4.6-.23-58.42v-4.6a37.46,37.46,0,0,0-5.75-20.24q-9-13.56-23.69-13.57a26.52,26.52,0,0,0-17.25,6.44q-12.2,10.13-12.19,27.37v67.39h-9.2V126.48h9.2v15.18q11.49-15,29.44-15.18a32.66,32.66,0,0,1,9.43,1.38q16.56,4.61,24.61,21.16A48.22,48.22,0,0,1,629.5,141.89Z" style="fill: #fff"/>
        </g>
        <circle cx="215.58" cy="92.43" r="17.11" transform="translate(108.1 300.92) rotate(-85.93)" style="fill: #c1272d"/>
      </g>
    </g>
  </g>
</svg>
