<?xml version="1.0" encoding="utf-8"?>
<!-- Generator: Adobe Illustrator 23.0.6, SVG Export Plug-In . SVG Version: 6.00 Build 0)  -->
<svg version="1.1" id="Calque_1" xmlns="http://www.w3.org/2000/svg" xmlns:xlink="http://www.w3.org/1999/xlink" x="0px" y="0px"
	 viewBox="0 0 800 800" style="enable-background:new 0 0 800 800;" xml:space="preserve">
<style type="text/css">
	.st0{fill:#FFFFFF;}
	.st1{fill:#C1272D;}
</style>
<polygon class="st0" points="108.03,559.93 24.26,559.93 24.26,476.16 32.08,476.16 32.08,552.11 108.03,552.11 "/>
<polygon class="st0" points="34.75,324.57 26.93,324.57 26.93,240.81 110.69,240.81 110.69,248.63 34.75,248.63 "/>
<polygon class="st0" points="776.26,324.57 768.44,324.57 768.44,248.63 692.5,248.63 692.5,240.81 776.26,240.81 "/>
<polygon class="st0" points="776.26,545.24 692.5,545.24 692.5,537.42 768.44,537.42 768.44,461.47 776.26,461.47 "/>
<g>
	<path class="st0" d="M92.1,399.49l0.23-73.37v-4.6h4.6l64.17-0.23c11.35,0,21.31,3.37,29.9,10.12c10.73,8.28,16.1,18.79,16.1,31.51
		c0,9.66-3.45,18.33-10.35,25.99c-9.2,10.12-21.09,15.18-35.65,15.18h-59.8v69v4.6h-9.2v-4.6v-69V399.49z M161.09,394.89
		c8.28,0,15.79-2.22,22.54-6.67c9.5-6.44,14.26-14.87,14.26-25.3c0-7.2-2.45-13.72-7.36-19.55c-7.36-8.58-17.18-12.88-29.44-12.88
		h-59.8v64.63L161.09,394.89z"/>
	<path class="st0" d="M235.85,348.66v-9.2h4.6h0.23h4.6v9.2h-4.6h-0.23H235.85z M235.85,367.29h9.2v4.6v101.2v4.6h-9.2v-4.6v-101.2
		V367.29z"/>
	<path class="st0" d="M362.58,456.07c-9.81,14.26-23.54,21.47-41.17,21.62c-12.42,0-23.31-4.45-32.66-13.34
		c-11.5-11.04-17.25-24.99-17.25-41.86c0-14.11,4.29-26.45,12.88-37.03c9.81-12.11,22.15-18.17,37.03-18.17
		c18.24,0.15,32.05,6.9,41.4,20.24l-7.82,5.06c-7.06-10.58-18.25-15.95-33.58-16.1c-9.66,0-18.25,3.37-25.76,10.12
		c-9.97,9.2-14.95,21.16-14.95,35.88c0,11.04,3.07,20.85,9.2,29.44c8.12,11.04,18.63,16.56,31.51,16.56
		c13.95-0.15,25.22-5.98,33.81-17.48L362.58,456.07z"/>
	<path class="st0" d="M405.13,447.56c0,0.61,0,1.3,0,2.07c1.23,12.57,10.35,18.86,27.37,18.86h4.6v9.2h-4.6
		c-2.45,0-4.91-0.15-7.36-0.46c-19.32-1.99-29.06-11.88-29.21-29.67v-71.07H381.9h-4.6v-9.2h4.6h14.03v-24.15v-4.6h9.2v4.6v24.15
		h27.37h4.6v9.2h-4.6h-27.37V447.56z"/>
	<path class="st0" d="M455.73,367.51h9.43l-0.23,4.6l-0.23,64.63c0,6.9,2.3,13.19,6.9,18.86c7.2,8.59,16.71,12.88,28.52,12.88
		c7.82,0,14.87-2.15,21.16-6.44c9.35-6.29,14.03-14.72,14.03-25.3v-64.86l0.23-4.37h9.43l-0.23,4.6l-0.23,64.63
		c0,9.51-3.22,18.02-9.66,25.53c-8.9,10.28-20.47,15.41-34.73,15.41c-10.89,0-20.55-3.29-28.98-9.89
		c-10.43-8.28-15.64-18.63-15.64-31.05v-64.86L455.73,367.51z"/>
	<path class="st0" d="M653.76,382.7c7.82-10.27,17.71-15.41,29.67-15.41c8.74,0,16.71,3.07,23.92,9.2
		c9.81,8.59,14.72,19.86,14.72,33.81v62.79l0.23,4.83h-8.97l-0.23-4.6l-0.23-63.02c0-7.36-1.92-14.11-5.75-20.24
		c-5.98-9.04-13.88-13.57-23.69-13.57c-6.29,0-12.04,2.15-17.25,6.44c-8.13,6.75-12.19,15.87-12.19,27.37v4.6v58.19l0.23,4.83h-8.97
		l-0.23-4.6l-0.23-58.42v-4.6c0-7.36-1.92-14.11-5.75-20.24c-5.98-9.04-13.88-13.57-23.69-13.57c-6.29,0-12.04,2.15-17.25,6.44
		c-8.13,6.75-12.19,15.87-12.19,27.37v4.6v58.19v4.6h-9.2v-4.6V414.9v-4.6v-38.41v-4.6h9.2v4.6v10.58
		c7.66-9.97,17.48-15.02,29.44-15.18c3.22,0,6.36,0.46,9.43,1.38c11.04,3.07,19.24,10.12,24.61,21.16
		C650.61,387.37,652.07,385,653.76,382.7z"/>
</g>
<circle class="st1" cx="239.84" cy="333.24" r="17.11"/>
</svg>
